<svg width="22" height="22" viewBox="0 0 22 22" fill="none" xmlns="http://www.w3.org/2000/svg">
<path d="M11.8594 5.92969V10.644L14.9879 13.7726C15.3235 14.1082 15.3235 14.6523 14.9879 14.9879C14.6523 15.3235 14.1081 15.3235 13.7726 14.9879L10.3923 11.6077C10.2312 11.4465 10.1406 11.2279 10.1406 11V5.92969C10.1406 5.45505 10.5254 5.07031 11 5.07031C11.4746 5.07031 11.8594 5.45505 11.8594 5.92969ZM14.3802 0H7.61978C5.81982 0 4.04405 0.632586 2.6232 1.8682V0.859375C2.6232 0.384742 2.23846 0 1.76382 0C1.28919 0 0.904449 0.384742 0.904449 0.859375V4.2396C0.904449 4.71423 1.2925 5.09897 1.76382 5.09897H5.14405C5.61868 5.09897 6.00342 4.71423 6.00342 4.2396C6.00342 3.76496 5.61868 3.38022 5.14405 3.38022H3.51841C4.60612 2.33157 6.07441 1.71875 7.61978 1.71875H14.3802C17.6341 1.71875 20.2812 4.36593 20.2812 7.61978V14.3802C20.2812 17.6341 17.6341 20.2812 14.3802 20.2812H7.61978C4.36593 20.2812 1.71875 17.6341 1.71875 14.3802V11C1.71875 10.5254 1.33401 10.1406 0.859375 10.1406C0.384742 10.1406 0 10.5254 0 11V14.3802C0 18.5818 3.41821 22 7.61978 22H14.3802C18.5818 22 22 18.5818 22 14.3802V7.61978C22 3.41821 18.5818 0 14.3802 0V0Z" fill="#34D1BF"/>
</svg>
