<svg width="15" height="18" viewBox="0 0 15 18" fill="none" xmlns="http://www.w3.org/2000/svg">
<path d="M9.25489 9.75C8.9137 9.75 8.6379 10.086 8.6379 10.5V13.5C8.6379 13.9132 8.36149 14.25 8.02091 14.25H6.16993V3C6.16993 2.3595 5.83429 1.78725 5.32958 1.57425L5.14696 1.5H8.02091C8.36149 1.5 8.6379 1.83675 8.6379 2.25V4.5C8.6379 4.914 8.9137 5.25 9.25489 5.25C9.59609 5.25 9.87189 4.914 9.87189 4.5V2.25C9.87189 1.0095 9.04141 0 8.02091 0H1.38823C1.36479 0 1.34504 0.01275 1.32222 0.0165C1.2926 0.0135 1.26422 0 1.23399 0C0.553443 0 0 0.67275 0 1.5V15C0 15.6405 0.335644 16.2127 0.840344 16.4257L4.55341 17.9303C4.67927 17.9775 4.80452 18 4.93594 18C5.61649 18 6.16993 17.3272 6.16993 16.5V15.75H8.02091C9.04141 15.75 9.87189 14.7405 9.87189 13.5V10.5C9.87189 10.086 9.59609 9.75 9.25489 9.75Z" fill="#2F80ED"/>
<path d="M14.627 6.96983L12.159 3.96983C11.9826 3.75533 11.7173 3.69083 11.4865 3.80708C11.2564 3.92333 11.1058 4.19708 11.1058 4.50008V6.75008H8.63786C8.29729 6.75008 8.02087 7.08608 8.02087 7.50008C8.02087 7.91408 8.29729 8.25008 8.63786 8.25008H11.1058V10.5001C11.1058 10.8031 11.2564 11.0768 11.4865 11.1931C11.7173 11.3093 11.9826 11.2448 12.159 11.0303L14.627 8.03033C14.8682 7.73708 14.8682 7.26308 14.627 6.96983Z" fill="#2F80ED"/>
</svg>
